<svg width="199" height="167" viewBox="0 0 199 167" fill="none" xmlns="http://www.w3.org/2000/svg">
<g clip-path="url(#clip0_95_388)">
<path d="M51.25 36.7606V36.6875C51.2499 29.4648 53.389 22.404 57.3974 16.3957C61.4058 10.3874 67.1039 5.70091 73.7729 2.92747C80.4418 0.154037 87.7828 -0.582084 94.8696 0.811983C101.956 2.20605 108.472 5.66785 113.593 10.7606C117.623 8.77171 122.124 7.93548 126.599 8.3443C131.074 8.75313 135.349 10.3911 138.952 13.0773C142.554 15.7634 145.344 19.3932 147.013 23.5655C148.682 27.7378 149.165 32.2903 148.409 36.72C149.521 36.8232 150.599 37.1544 151.577 37.693C152.555 38.2316 153.412 38.966 154.093 39.8504C154.775 40.7348 155.267 41.7502 155.539 42.8332C155.81 43.9162 155.856 45.0436 155.673 46.145C152 68.2369 142.916 82.22 128.438 88.1025V93.5625C128.438 96.7948 127.154 99.8948 124.868 102.18C122.582 104.466 119.482 105.75 116.25 105.75H83.7501C80.5177 105.75 77.4178 104.466 75.1322 102.18C72.8466 99.8948 71.5626 96.7948 71.5626 93.5625V88.1025C57.0838 82.22 48 68.2369 44.3275 46.145C44.1503 45.0729 44.1899 43.9761 44.4441 42.9195C44.6983 41.8629 45.1618 40.8681 45.8072 39.9939C46.4527 39.1196 47.2669 38.3838 48.2018 37.8298C49.1367 37.2758 50.1732 36.915 51.25 36.7687V36.7606ZM59.375 36.6875H67.5001C67.5001 31.3003 69.6401 26.1337 73.4494 22.3244C77.2588 18.5151 82.4253 16.375 87.8126 16.375C93.1998 16.375 98.3663 18.5151 102.176 22.3244C105.985 26.1337 108.125 31.3003 108.125 36.6875H116.25C116.25 29.1454 113.254 21.9122 107.921 16.5791C102.588 11.2461 95.3546 8.24999 87.8126 8.24999C80.2705 8.24999 73.0373 11.2461 67.7042 16.5791C62.3711 21.9122 59.375 29.1454 59.375 36.6875ZM75.6251 36.6875H100C100 33.4552 98.716 30.3552 96.4304 28.0696C94.1448 25.784 91.0449 24.5 87.8126 24.5C84.5802 24.5 81.4803 25.784 79.1947 28.0696C76.9091 30.3552 75.6251 33.4552 75.6251 36.6875ZM131.411 36.6875H140.113C140.727 34.2863 140.784 31.7768 140.28 29.3502C139.777 26.9236 138.726 24.6439 137.208 22.6849C135.691 20.7258 133.746 19.1391 131.522 18.0456C129.298 16.9521 126.853 16.3807 124.375 16.375C122.425 16.375 120.573 16.7162 118.85 17.3419C120.288 19.6494 121.474 22.1356 122.384 24.7437C123.932 24.3599 125.558 24.439 127.061 24.971C128.564 25.5031 129.878 26.4648 130.839 27.7368C131.801 29.0088 132.367 30.5351 132.469 32.1263C132.571 33.7174 132.203 35.3035 131.411 36.6875ZM120.313 89.5H79.6876V93.5625C79.6876 94.6399 80.1156 95.6733 80.8774 96.4351C81.6393 97.197 82.6726 97.625 83.7501 97.625H116.25C117.327 97.625 118.361 97.197 119.123 96.4351C119.885 95.6733 120.313 94.6399 120.313 93.5625V89.5ZM76.8275 81.375H123.173C136.059 77.2313 144.216 65.515 147.661 44.8125H52.3388C55.7838 65.515 63.9413 77.2313 76.8275 81.375Z" fill="#00A88F"/>
</g>
<path d="M14.839 158.119H31.169V166H4.899V116.442H14.839V158.119ZM60.4909 166.497C55.8522 166.497 51.5922 165.408 47.7109 163.231C43.8296 161.054 40.7529 158.048 38.4809 154.214C36.2089 150.333 35.0729 145.954 35.0729 141.079C35.0729 136.251 36.2089 131.92 38.4809 128.086C40.7529 124.205 43.8296 121.175 47.7109 118.998C51.5922 116.821 55.8522 115.732 60.4909 115.732C65.1769 115.732 69.4369 116.821 73.2709 118.998C77.1522 121.175 80.2052 124.205 82.4299 128.086C84.7019 131.92 85.8379 136.251 85.8379 141.079C85.8379 145.954 84.7019 150.333 82.4299 154.214C80.2052 158.048 77.1522 161.054 73.2709 163.231C69.3896 165.408 65.1296 166.497 60.4909 166.497ZM60.4909 157.622C63.4729 157.622 66.0999 156.959 68.3719 155.634C70.6439 154.261 72.4189 152.321 73.6969 149.812C74.9749 147.303 75.6139 144.392 75.6139 141.079C75.6139 137.766 74.9749 134.878 73.6969 132.417C72.4189 129.908 70.6439 127.991 68.3719 126.666C66.0999 125.341 63.4729 124.678 60.4909 124.678C57.5089 124.678 54.8582 125.341 52.5389 126.666C50.2669 127.991 48.4919 129.908 47.2139 132.417C45.9359 134.878 45.2969 137.766 45.2969 141.079C45.2969 144.392 45.9359 147.303 47.2139 149.812C48.4919 152.321 50.2669 154.261 52.5389 155.634C54.8582 156.959 57.5089 157.622 60.4909 157.622ZM127.739 131.352C126.603 129.269 125.041 127.684 123.053 126.595C121.065 125.506 118.746 124.962 116.095 124.962C113.16 124.962 110.557 125.625 108.285 126.95C106.013 128.275 104.238 130.169 102.96 132.63C101.682 135.091 101.043 137.931 101.043 141.15C101.043 144.463 101.682 147.351 102.96 149.812C104.285 152.273 106.108 154.167 108.427 155.492C110.746 156.817 113.444 157.48 116.521 157.48C120.308 157.48 123.408 156.486 125.822 154.498C128.236 152.463 129.822 149.646 130.579 146.049H113.539V138.452H140.377V147.114C139.714 150.569 138.294 153.764 136.117 156.699C133.94 159.634 131.123 162 127.668 163.799C124.26 165.55 120.426 166.426 116.166 166.426C111.385 166.426 107.054 165.361 103.173 163.231C99.339 161.054 96.3097 158.048 94.085 154.214C91.9077 150.38 90.819 146.025 90.819 141.15C90.819 136.275 91.9077 131.92 94.085 128.086C96.3097 124.205 99.339 121.199 103.173 119.069C107.054 116.892 111.362 115.803 116.095 115.803C121.68 115.803 126.532 117.176 130.65 119.921C134.768 122.619 137.608 126.429 139.17 131.352H127.739ZM170.735 166.497C166.096 166.497 161.836 165.408 157.955 163.231C154.074 161.054 150.997 158.048 148.725 154.214C146.453 150.333 145.317 145.954 145.317 141.079C145.317 136.251 146.453 131.92 148.725 128.086C150.997 124.205 154.074 121.175 157.955 118.998C161.836 116.821 166.096 115.732 170.735 115.732C175.421 115.732 179.681 116.821 183.515 118.998C187.396 121.175 190.449 124.205 192.674 128.086C194.946 131.92 196.082 136.251 196.082 141.079C196.082 145.954 194.946 150.333 192.674 154.214C190.449 158.048 187.396 161.054 183.515 163.231C179.634 165.408 175.374 166.497 170.735 166.497ZM170.735 157.622C173.717 157.622 176.344 156.959 178.616 155.634C180.888 154.261 182.663 152.321 183.941 149.812C185.219 147.303 185.858 144.392 185.858 141.079C185.858 137.766 185.219 134.878 183.941 132.417C182.663 129.908 180.888 127.991 178.616 126.666C176.344 125.341 173.717 124.678 170.735 124.678C167.753 124.678 165.102 125.341 162.783 126.666C160.511 127.991 158.736 129.908 157.458 132.417C156.18 134.878 155.541 137.766 155.541 141.079C155.541 144.392 156.18 147.303 157.458 149.812C158.736 152.321 160.511 154.261 162.783 155.634C165.102 156.959 167.753 157.622 170.735 157.622Z" fill="#00A88F"/>
<defs>
<clipPath id="clip0_95_388">
<rect width="112" height="106" fill="white" transform="translate(44)"/>
</clipPath>
</defs>
</svg>
