<svg width="23" height="23" viewBox="0 0 23 23" fill="none" xmlns="http://www.w3.org/2000/svg">
<path d="M18.6875 14.375H14.375V12.9375H18.6875V14.375ZM21.5625 20.125H17.25V18.6875H21.5625V20.125ZM20.125 17.25H15.8125V15.8125H20.125V17.25Z" fill="white"/>
<path d="M12.2209 14.375C12.2158 13.7685 12.0541 13.1737 11.7513 12.6481C11.4486 12.1226 11.0151 11.6843 10.493 11.3757L15.8125 2.15625L14.5691 1.4375L9.1231 10.8718C8.45473 10.7225 7.75959 10.7432 7.10127 10.9319C6.44294 11.1206 5.84244 11.4714 5.35469 11.9521C2.66369 14.5475 2.87213 20.6152 2.88219 20.8725C2.88962 21.0581 2.96861 21.2336 3.10261 21.3622C3.2366 21.4909 3.41519 21.5626 3.60094 21.5625H14.3757C14.5266 21.5625 14.6736 21.515 14.796 21.4268C14.9184 21.3386 15.0099 21.2141 15.0576 21.071C15.1053 20.9279 15.1068 20.7734 15.0618 20.6294C15.0168 20.4855 14.9277 20.3593 14.807 20.2688C12.2626 18.3598 12.2209 14.4138 12.2209 14.375ZM8.57469 12.2166C9.14996 12.2229 9.70064 12.4508 10.1122 12.8528C10.5237 13.2548 10.7644 13.8 10.7841 14.375C10.7841 14.4023 10.7856 14.5245 10.7963 14.7121L6.55572 12.8261C6.83505 12.5958 7.1574 12.4232 7.504 12.3186C7.85061 12.214 8.21456 12.1793 8.57469 12.2166ZM11.1047 20.125C10.5302 19.54 10.164 18.7824 10.0625 17.9688H8.625C8.67648 18.7337 8.91542 19.4742 9.32075 20.125H7.72297C7.42738 19.1922 7.24755 18.2266 7.1875 17.25H5.75C5.79635 18.2237 5.95677 19.1887 6.22797 20.125H4.3125C4.33478 18.8054 4.52094 15.8901 5.60841 13.9775L11.0228 16.3853C11.2829 17.7361 11.8375 19.0129 12.6471 20.125H11.1047Z" fill="white"/>
</svg>
