<svg width="20" height="17" viewBox="0 0 20 17" fill="none" xmlns="http://www.w3.org/2000/svg">
<path fill-rule="evenodd" clip-rule="evenodd" d="M6.54311 0C6.06257 -1.13336e-06 5.58991 0.122223 5.1696 0.355177C4.74929 0.588132 4.39514 0.924162 4.14045 1.33167L0.287116 7.49889C0.0994871 7.79909 0 8.14598 0 8.5C0 8.85402 0.0994871 9.20091 0.287116 9.50111L4.14045 15.6683C4.39514 16.0758 4.74929 16.4119 5.1696 16.6448C5.58991 16.8778 6.06257 17 6.54311 17H16.83C17.5815 17 18.3021 16.7015 18.8335 16.1701C19.3648 15.6388 19.6633 14.9181 19.6633 14.1667V2.83333C19.6633 2.08189 19.3648 1.36122 18.8335 0.829864C18.3021 0.298511 17.5815 0 16.83 0H6.54311ZM14.5019 11.8396C14.3248 12.0166 14.0847 12.1161 13.8342 12.1161C13.5838 12.1161 13.3436 12.0166 13.1665 11.8396L11.1633 9.83544L9.16017 11.8396C8.98295 12.0168 8.7426 12.1163 8.49198 12.1163C8.24135 12.1163 8.001 12.0168 7.82378 11.8396C7.64657 11.6623 7.54701 11.422 7.54701 11.1714C7.54701 10.9207 7.64657 10.6804 7.82378 10.5032L9.82789 8.5L7.82378 6.49683C7.64657 6.31962 7.54701 6.07926 7.54701 5.82864C7.54701 5.57802 7.64657 5.33766 7.82378 5.16044C8.001 4.98323 8.24135 4.88367 8.49198 4.88367C8.7426 4.88367 8.98295 4.98323 9.16017 5.16044L11.1633 7.16456L13.1665 5.16044C13.2543 5.07276 13.3584 5.00321 13.473 4.95578C13.5877 4.90835 13.7105 4.88396 13.8346 4.884C13.9586 4.88405 14.0814 4.90852 14.196 4.95604C14.3106 5.00355 14.4147 5.07317 14.5024 5.16092C14.5901 5.24867 14.6597 5.35283 14.7071 5.46745C14.7545 5.58208 14.7789 5.70492 14.7789 5.82897C14.7788 5.95302 14.7543 6.07585 14.7068 6.19044C14.6593 6.30504 14.5897 6.40915 14.5019 6.49683L12.4997 8.5L14.5019 10.5032C14.5898 10.5909 14.6594 10.695 14.7069 10.8097C14.7545 10.9243 14.7789 11.0472 14.7789 11.1714C14.7789 11.2955 14.7545 11.4184 14.7069 11.533C14.6594 11.6477 14.5898 11.7518 14.5019 11.8396Z" fill="white"/>
</svg>
