<svg width="18" height="17" viewBox="0 0 18 17" fill="none" xmlns="http://www.w3.org/2000/svg">
<path fill-rule="evenodd" clip-rule="evenodd" d="M10.6077 4.42661C10.7832 4.82648 10.6013 5.29291 10.2014 5.4684L6.53646 7.07691H13.0783L12.0108 5.60368C11.7546 5.25007 11.8335 4.7557 12.1871 4.49946C12.5407 4.24323 13.0351 4.32216 13.2913 4.67577L15.268 7.40364C15.4424 7.64426 15.4671 7.96232 15.3321 8.227C15.197 8.49168 14.9249 8.65828 14.6278 8.65828H2.76745C2.39333 8.65828 2.07042 8.39608 1.99361 8.02994C1.9168 7.66379 2.10711 7.29392 2.44968 7.14357L9.56588 4.02035C9.96574 3.84486 10.4322 4.02674 10.6077 4.42661Z" fill="#00A88F"/>
<path d="M11.465 5.93039C12.3384 5.93039 13.0464 5.22238 13.0464 4.34901C13.0464 3.47565 12.3384 2.76764 11.465 2.76764C10.5917 2.76764 9.88367 3.47565 9.88367 4.34901C9.88367 5.22238 10.5917 5.93039 11.465 5.93039Z" fill="#00A88F"/>
<path fill-rule="evenodd" clip-rule="evenodd" d="M13.3401 0.0567629C13.7455 0.218944 13.9427 0.679101 13.7806 1.08455L12.9899 3.06127C12.8277 3.46672 12.3675 3.66393 11.9621 3.50175C11.5566 3.33957 11.3594 2.87942 11.5216 2.47396L12.3123 0.497244C12.4745 0.0917924 12.9346 -0.105418 13.3401 0.0567629Z" fill="#00A88F"/>
<path fill-rule="evenodd" clip-rule="evenodd" d="M1.87024 9.58215C2.10098 9.4319 2.34882 9.29048 2.61241 9.15912L3.31775 10.5745C3.10543 10.6803 2.91055 10.7918 2.73336 10.9072C1.88277 11.4621 1.58138 12.0157 1.58138 12.4535C1.58138 13.0085 2.08305 13.7478 3.44576 14.3951C4.74889 15.0141 6.60476 15.4186 8.69757 15.4186C10.7904 15.4186 12.6462 15.0141 13.9494 14.3951C15.3121 13.7478 15.8138 13.0085 15.8138 12.4535C15.8138 12.0045 15.4962 11.4342 14.6006 10.868L15.4456 9.53134C16.5362 10.2208 17.3951 11.2105 17.3951 12.4535C17.3951 13.973 16.1269 15.1115 14.6279 15.8235C13.0693 16.5638 10.9717 17 8.69757 17C6.4234 17 4.32583 16.5638 2.76727 15.8235C1.26828 15.1115 0 13.973 0 12.4535C0 11.2405 0.819732 10.2673 1.86973 9.58248L1.87024 9.58215Z" fill="#00A88F"/>
<path fill-rule="evenodd" clip-rule="evenodd" d="M1.97668 7.90708C1.97668 7.4704 2.33069 7.11639 2.76737 7.11639H14.6277C15.0644 7.11639 15.4184 7.4704 15.4184 7.90708V12.6512C15.4184 13.0879 15.0644 13.4419 14.6277 13.4419H2.76737C2.33069 13.4419 1.97668 13.0879 1.97668 12.6512V7.90708ZM3.55806 8.69777V11.8605H13.837V8.69777H3.55806Z" fill="#00A88F"/>
<path fill-rule="evenodd" clip-rule="evenodd" d="M15.0231 8.69777H2.76746V7.11639H15.0231V8.69777Z" fill="#00A88F"/>
</svg>
