<svg width="50" height="50" viewBox="0 0 50 50" fill="none" xmlns="http://www.w3.org/2000/svg">
<g clip-path="url(#clip0_90_383)">
<path d="M24.9999 6.25C25.5309 6.25059 26.0417 6.45391 26.4278 6.81843C26.8139 7.18295 27.0462 7.68115 27.0774 8.21124C27.1085 8.74133 26.936 9.26329 26.5952 9.67048C26.2544 10.0777 25.771 10.3394 25.2437 10.4021L24.9999 10.4167H14.5833C14.073 10.4167 13.5805 10.6041 13.1991 10.9432C12.8178 11.2822 12.5742 11.7495 12.5145 12.2562L12.4999 12.5V37.5C12.5 38.0103 12.6873 38.5028 13.0264 38.8841C13.3655 39.2654 13.8327 39.509 14.3395 39.5687L14.5833 39.5833H23.9583C24.4893 39.5839 25 39.7872 25.3861 40.1518C25.7722 40.5163 26.0046 41.0145 26.0357 41.5446C26.0668 42.0747 25.8943 42.5966 25.5535 43.0038C25.2127 43.411 24.7293 43.6727 24.202 43.7354L23.9583 43.75H14.5833C12.9891 43.7501 11.4551 43.141 10.2952 42.0473C9.13532 40.9537 8.43719 39.4581 8.34367 37.8667L8.33325 37.5V12.5C8.33316 10.9058 8.94226 9.37184 10.0359 8.21196C11.1296 7.05207 12.6251 6.35394 14.2166 6.26042L14.5833 6.25H24.9999ZM36.8895 17.6333L42.7812 23.5271C43.1717 23.9178 43.3911 24.4476 43.3911 25C43.3911 25.5524 43.1717 26.0822 42.7812 26.4729L36.8895 32.3667C36.4986 32.7573 35.9685 32.9767 35.4158 32.9765C34.8632 32.9763 34.3333 32.7565 33.9426 32.3656C33.552 31.9747 33.3326 31.4446 33.3328 30.892C33.333 30.3393 33.5527 29.8094 33.9437 29.4187L36.2791 27.0833H24.9999C24.4474 27.0833 23.9175 26.8638 23.5268 26.4731C23.1361 26.0824 22.9166 25.5525 22.9166 25C22.9166 24.4475 23.1361 23.9176 23.5268 23.5269C23.9175 23.1362 24.4474 22.9167 24.9999 22.9167H36.2791L33.9437 20.5812C33.5527 20.1906 33.333 19.6607 33.3328 19.108C33.3326 18.5554 33.552 18.0253 33.9426 17.6344C34.3333 17.2435 34.8632 17.0237 35.4158 17.0235C35.9685 17.0233 36.4986 17.2427 36.8895 17.6333Z" fill="#EF4444"/>
</g>
<defs>
<clipPath id="clip0_90_383">
<rect width="50" height="50" fill="white"/>
</clipPath>
</defs>
</svg>
