<svg width="19" height="17" viewBox="0 0 19 17" fill="none" xmlns="http://www.w3.org/2000/svg">
<path d="M1.18754 5.89644V5.88467C1.18753 4.72222 1.5488 3.5858 2.2258 2.61879C2.90279 1.65178 3.86517 0.897508 4.99151 0.451135C6.11785 0.00476172 7.35769 -0.113714 8.55462 0.110656C9.75154 0.335025 10.8519 0.892187 11.7169 1.71185C12.3975 1.39174 13.1577 1.25715 13.9135 1.32295C14.6693 1.38875 15.3914 1.65238 15.9998 2.0847C16.6082 2.51703 17.0794 3.10122 17.3613 3.77274C17.6432 4.44426 17.7248 5.17697 17.5971 5.8899C17.7848 5.90651 17.967 5.95982 18.1322 6.04651C18.2974 6.13319 18.442 6.25139 18.5572 6.39373C18.6723 6.53607 18.7554 6.69949 18.8013 6.8738C18.8471 7.04811 18.8548 7.22955 18.8239 7.40682C18.2036 10.9624 16.6694 13.2129 14.224 14.1597V15.0385C14.224 15.5587 14.0072 16.0576 13.6211 16.4255C13.2351 16.7933 12.7116 17 12.1656 17H6.67659C6.13067 17 5.60711 16.7933 5.22109 16.4255C4.83507 16.0576 4.6182 15.5587 4.6182 15.0385V14.1597C2.17283 13.2129 0.638638 10.9624 0.0183755 7.40682C-0.0115594 7.23426 -0.00486581 7.05774 0.03806 6.88769C0.0809859 6.71764 0.159272 6.55753 0.268285 6.41682C0.377297 6.27612 0.514822 6.15768 0.672719 6.06852C0.830616 5.97936 1.00568 5.92129 1.18754 5.89775V5.89644ZM2.55981 5.88467H3.93207C3.93207 5.01762 4.29351 4.18609 4.93688 3.57299C5.58026 2.95989 6.45286 2.61546 7.36273 2.61546C8.27259 2.61546 9.14519 2.95989 9.78857 3.57299C10.4319 4.18609 10.7934 5.01762 10.7934 5.88467H12.1656C12.1656 4.6708 11.6596 3.50665 10.7589 2.64832C9.85818 1.78998 8.63654 1.30777 7.36273 1.30777C6.08891 1.30777 4.86727 1.78998 3.96655 2.64832C3.06583 3.50665 2.55981 4.6708 2.55981 5.88467ZM5.30433 5.88467H9.42112C9.42112 5.36444 9.20425 4.86552 8.81823 4.49766C8.43221 4.1298 7.90865 3.92314 7.36273 3.92314C6.81681 3.92314 6.29324 4.1298 5.90722 4.49766C5.5212 4.86552 5.30433 5.36444 5.30433 5.88467ZM14.7263 5.88467H16.196C16.2996 5.49821 16.3092 5.09432 16.2242 4.70377C16.1392 4.31321 15.9618 3.94631 15.7054 3.63101C15.449 3.3157 15.1205 3.06033 14.7449 2.88434C14.3693 2.70834 13.9565 2.61638 13.5379 2.61546C13.2086 2.61546 12.8957 2.67038 12.6048 2.77107C12.8477 3.14246 13.048 3.54261 13.2017 3.96237C13.4631 3.9006 13.7377 3.91332 13.9916 3.99896C14.2454 4.08459 14.4673 4.23938 14.6297 4.4441C14.792 4.64882 14.8877 4.89447 14.9049 5.15056C14.9221 5.40665 14.86 5.66192 14.7263 5.88467ZM12.8518 14.3846H5.99046V15.0385C5.99046 15.2119 6.06275 15.3782 6.19143 15.5008C6.3201 15.6234 6.49462 15.6923 6.67659 15.6923H12.1656C12.3476 15.6923 12.5221 15.6234 12.6508 15.5008C12.7795 15.3782 12.8518 15.2119 12.8518 15.0385V14.3846ZM5.50743 13.0769H13.3348C15.5112 12.41 16.889 10.5243 17.4708 7.19236H1.37143C1.95327 10.5243 3.33102 12.41 5.50743 13.0769Z" fill="#00A88F"/>
<path d="M1.18754 5.89644V5.88467C1.18753 4.72222 1.5488 3.5858 2.2258 2.61879C2.90279 1.65178 3.86517 0.897508 4.99151 0.451135C6.11785 0.00476172 7.35769 -0.113714 8.55462 0.110656C9.75154 0.335025 10.8519 0.892187 11.7169 1.71185C12.3975 1.39174 13.1577 1.25715 13.9135 1.32295C14.6693 1.38875 15.3914 1.65238 15.9998 2.0847C16.6082 2.51703 17.0794 3.10122 17.3613 3.77274C17.6432 4.44426 17.7248 5.17697 17.5971 5.8899C17.7848 5.90651 17.967 5.95982 18.1322 6.04651C18.2974 6.13319 18.442 6.25139 18.5572 6.39373C18.6723 6.53607 18.7554 6.69949 18.8013 6.8738C18.8471 7.04811 18.8548 7.22955 18.8239 7.40682C18.2036 10.9624 16.6694 13.2129 14.224 14.1597V15.0385C14.224 15.5587 14.0072 16.0576 13.6211 16.4255C13.2351 16.7933 12.7116 17 12.1656 17H6.67659C6.13067 17 5.60711 16.7933 5.22109 16.4255C4.83507 16.0576 4.6182 15.5587 4.6182 15.0385V14.1597C2.17283 13.2129 0.638638 10.9624 0.0183755 7.40682C-0.0115594 7.23426 -0.00486581 7.05774 0.03806 6.88769C0.0809859 6.71764 0.159272 6.55753 0.268285 6.41682C0.377297 6.27612 0.514822 6.15768 0.672719 6.06852C0.830616 5.97936 1.00568 5.92129 1.18754 5.89775V5.89644ZM2.55981 5.88467H3.93207C3.93207 5.01762 4.29351 4.18609 4.93688 3.57299C5.58026 2.95989 6.45286 2.61546 7.36273 2.61546C8.27259 2.61546 9.14519 2.95989 9.78857 3.57299C10.4319 4.18609 10.7934 5.01762 10.7934 5.88467H12.1656C12.1656 4.6708 11.6596 3.50665 10.7589 2.64832C9.85818 1.78998 8.63654 1.30777 7.36273 1.30777C6.08891 1.30777 4.86727 1.78998 3.96655 2.64832C3.06583 3.50665 2.55981 4.6708 2.55981 5.88467ZM5.30433 5.88467H9.42112C9.42112 5.36444 9.20425 4.86552 8.81823 4.49766C8.43221 4.1298 7.90865 3.92314 7.36273 3.92314C6.81681 3.92314 6.29324 4.1298 5.90722 4.49766C5.5212 4.86552 5.30433 5.36444 5.30433 5.88467ZM14.7263 5.88467H16.196C16.2996 5.49821 16.3092 5.09432 16.2242 4.70377C16.1392 4.31321 15.9618 3.94631 15.7054 3.63101C15.449 3.3157 15.1205 3.06033 14.7449 2.88434C14.3693 2.70834 13.9565 2.61638 13.5379 2.61546C13.2086 2.61546 12.8957 2.67038 12.6048 2.77107C12.8477 3.14246 13.048 3.54261 13.2017 3.96237C13.4631 3.9006 13.7377 3.91332 13.9916 3.99896C14.2454 4.08459 14.4673 4.23938 14.6297 4.4441C14.792 4.64882 14.8877 4.89447 14.9049 5.15056C14.9221 5.40665 14.86 5.66192 14.7263 5.88467ZM12.8518 14.3846H5.99046V15.0385C5.99046 15.2119 6.06275 15.3782 6.19143 15.5008C6.3201 15.6234 6.49462 15.6923 6.67659 15.6923H12.1656C12.3476 15.6923 12.5221 15.6234 12.6508 15.5008C12.7795 15.3782 12.8518 15.2119 12.8518 15.0385V14.3846ZM5.50743 13.0769H13.3348C15.5112 12.41 16.889 10.5243 17.4708 7.19236H1.37143C1.95327 10.5243 3.33102 12.41 5.50743 13.0769Z" fill="white"/>
</svg>
