<svg width="14" height="17" viewBox="0 0 14 17" fill="none" xmlns="http://www.w3.org/2000/svg">
<path d="M6.90291 0.504734C6.92947 0.660788 7.43748 3.64242 7.43748 4.78128C7.43748 6.5178 6.51444 7.75628 5.14979 8.25432L5.57811 16.16C5.60135 16.6148 5.23944 17 4.78124 17H2.65624C2.20136 17 1.83613 16.6182 1.85937 16.16L2.28769 8.25432C0.919724 7.75628 0 6.51448 0 4.78128C0 3.6391 0.508006 0.660788 0.534569 0.504734C0.640819 -0.169288 2.03867 -0.179249 2.12499 0.541257V5.22953C2.16816 5.34242 2.62636 5.33578 2.65624 5.22953C2.70273 4.38949 2.91855 0.607663 2.92187 0.521335C3.03144 -0.169288 4.40604 -0.169288 4.51229 0.521335C4.51893 0.610983 4.73143 4.38949 4.77792 5.22953C4.8078 5.33578 5.26932 5.34242 5.30916 5.22953V0.541257C5.39549 -0.175929 6.79666 -0.169288 6.90291 0.504734ZM10.8607 9.99084L10.3627 16.1367C10.3228 16.6016 10.6914 17 11.1562 17H13.0156C13.4572 17 13.8125 16.6447 13.8125 16.2031V0.79692C13.8125 0.35864 13.4572 4.74556e-05 13.0156 4.74556e-05C10.2763 4.74556e-05 5.66444 5.92679 10.8607 9.99084Z" fill="#00A88F"/>
<path d="M6.90291 0.504734C6.92947 0.660788 7.43748 3.64242 7.43748 4.78128C7.43748 6.5178 6.51444 7.75628 5.14979 8.25432L5.57811 16.16C5.60135 16.6148 5.23944 17 4.78124 17H2.65624C2.20136 17 1.83613 16.6182 1.85937 16.16L2.28769 8.25432C0.919724 7.75628 0 6.51448 0 4.78128C0 3.6391 0.508006 0.660788 0.534569 0.504734C0.640819 -0.169288 2.03867 -0.179249 2.12499 0.541257V5.22953C2.16816 5.34242 2.62636 5.33578 2.65624 5.22953C2.70273 4.38949 2.91855 0.607663 2.92187 0.521335C3.03144 -0.169288 4.40604 -0.169288 4.51229 0.521335C4.51893 0.610983 4.73143 4.38949 4.77792 5.22953C4.8078 5.33578 5.26932 5.34242 5.30916 5.22953V0.541257C5.39549 -0.175929 6.79666 -0.169288 6.90291 0.504734ZM10.8607 9.99084L10.3627 16.1367C10.3228 16.6016 10.6914 17 11.1562 17H13.0156C13.4572 17 13.8125 16.6447 13.8125 16.2031V0.79692C13.8125 0.35864 13.4572 4.74556e-05 13.0156 4.74556e-05C10.2763 4.74556e-05 5.66444 5.92679 10.8607 9.99084Z" fill="white"/>
</svg>
