<svg width="15" height="17" viewBox="0 0 15 17" fill="none" xmlns="http://www.w3.org/2000/svg">
<path fill-rule="evenodd" clip-rule="evenodd" d="M5.86179 0.452653C6.15162 0.162824 6.54471 0 6.95459 0H8.11368C8.52356 0 8.91665 0.162824 9.20648 0.452653C9.49631 0.742482 9.65914 1.13557 9.65914 1.54545V3.09091H10.8182C11.2281 3.09091 11.6212 3.25373 11.911 3.54356C12.2009 3.83339 12.3637 4.22648 12.3637 4.63636V7.34091C12.3637 7.76767 12.0177 8.11364 11.591 8.11364C11.1642 8.11364 10.8182 7.76767 10.8182 7.34091V4.63636H9.65914V7.72727C9.65914 8.15404 9.31317 8.5 8.88641 8.5C8.45964 8.5 8.11368 8.15404 8.11368 7.72727V1.54545H6.95459V7.72727C6.95459 8.15404 6.60863 8.5 6.18186 8.5C5.7551 8.5 5.40914 8.15404 5.40914 7.72727V3.86364H4.25004L4.25004 7.34091C4.25004 7.76767 3.90408 8.11364 3.47732 8.11364C3.05055 8.11364 2.70459 7.76767 2.70459 7.34091V3.86364C2.70459 3.45376 2.86741 3.06066 3.15724 2.77084C3.44707 2.48101 3.84016 2.31818 4.25004 2.31818H5.40914V1.54545C5.40914 1.13557 5.57196 0.742482 5.86179 0.452653Z" fill="#00A88F"/>
<path fill-rule="evenodd" clip-rule="evenodd" d="M1.22152 5.55273C1.22151 5.55273 1.22152 5.55273 1.22152 5.55273L1.22073 5.55217C1.2205 5.55201 1.22063 5.55211 1.22073 5.55217L1.223 5.55376C1.22593 5.55581 1.23141 5.55961 1.23938 5.56505C1.25534 5.57593 1.28127 5.59334 1.3168 5.61637C1.3879 5.66245 1.49725 5.73089 1.64187 5.81432C1.93138 5.98135 2.36044 6.20745 2.90519 6.43442C3.99705 6.88937 5.53676 7.34089 7.34094 7.34089C9.14513 7.34089 10.6848 6.88937 11.7767 6.43442C12.3214 6.20745 12.7505 5.98135 13.04 5.81432C13.1846 5.73089 13.294 5.66245 13.3651 5.61637C13.4006 5.59334 13.4265 5.57593 13.4425 5.56505C13.4505 5.55961 13.456 5.55581 13.4589 5.55376L13.46 5.55301C13.4601 5.55292 13.4602 5.55282 13.4604 5.55273C13.4605 5.55266 13.4606 5.55258 13.4607 5.5525C13.4608 5.55239 13.461 5.55228 13.4612 5.55217C13.4612 5.55214 13.4611 5.5522 13.4612 5.55217C13.7174 5.36994 14.0587 5.36103 14.3241 5.52995C14.5899 5.69915 14.7263 6.01279 14.6689 6.3226L12.8074 16.3681C12.7396 16.7343 12.4201 17 12.0476 17H2.63426C2.2618 17 1.94233 16.7343 1.87447 16.3681L0.0129691 6.3226C-0.0444409 6.01279 0.0920024 5.69915 0.357799 5.52995C0.623145 5.36103 0.964478 5.36993 1.22073 5.55217M12.8512 7.64984C12.7011 7.71942 12.5409 7.79024 12.3711 7.861C11.1448 8.37196 9.4004 8.88635 7.34094 8.88635C5.28149 8.88635 3.53711 8.37196 2.31079 7.861C2.14097 7.79024 1.98076 7.71942 1.83068 7.64984L3.27695 15.4545H11.4049L12.8512 7.64984ZM1.22152 5.55273C1.22151 5.55273 1.22152 5.55273 1.22152 5.55273Z" fill="#00A88F"/>
<path fill-rule="evenodd" clip-rule="evenodd" d="M5.7859 12.0394C5.78584 12.0394 5.78619 12.0385 5.78713 12.0368C5.78643 12.0386 5.78596 12.0394 5.7859 12.0394ZM5.84223 11.9773C5.88086 11.9445 5.94443 11.9003 6.0474 11.8488C6.33855 11.7033 6.79483 11.5909 7.34103 11.5909C7.88723 11.5909 8.34351 11.7033 8.63466 11.8488C8.73763 11.9003 8.8012 11.9445 8.83983 11.9773C8.8012 12.0101 8.73763 12.0543 8.63466 12.1057C8.34351 12.2513 7.88723 12.3637 7.34103 12.3637C6.79483 12.3637 6.33855 12.2513 6.0474 12.1057C5.94443 12.0543 5.88086 12.0101 5.84223 11.9773ZM8.89616 12.0394C8.8961 12.0394 8.89564 12.0386 8.89494 12.0368C8.89587 12.0385 8.89622 12.0394 8.89616 12.0394ZM8.89494 11.9177C8.89564 11.916 8.8961 11.9152 8.89616 11.9152C8.89622 11.9152 8.89587 11.9161 8.89494 11.9177ZM5.78713 11.9178C5.78619 11.9161 5.78584 11.9152 5.7859 11.9152C5.78596 11.9152 5.78643 11.916 5.78713 11.9178ZM5.35625 10.4665C5.90413 10.1926 6.60693 10.0455 7.34103 10.0455C8.07513 10.0455 8.77793 10.1926 9.32581 10.4665C9.82746 10.7174 10.4319 11.2068 10.4319 11.9773C10.4319 12.7477 9.82746 13.2372 9.32581 13.488C8.77793 13.762 8.07513 13.9091 7.34103 13.9091C6.60693 13.9091 5.90413 13.762 5.35625 13.488C4.8546 13.2372 4.25012 12.7477 4.25012 11.9773C4.25012 11.2068 4.8546 10.7174 5.35625 10.4665Z" fill="#00A88F"/>
</svg>
