<svg width="42" height="34" viewBox="0 0 42 34" fill="none" xmlns="http://www.w3.org/2000/svg">
<path d="M8.50001 33.6666L11.625 25.8541C11.9375 25.0555 12.441 24.4215 13.1354 23.9521C13.8299 23.4826 14.6111 23.2486 15.4792 23.25H18.9167V14.8646C13.6042 14.691 9.1507 13.9097 5.55626 12.5208C1.96181 11.1319 0.165284 9.49998 0.166673 7.62498C0.166673 5.61109 2.19792 3.89234 6.26042 2.46873C10.3229 1.04512 15.2361 0.333313 21 0.333313C26.7986 0.333313 31.7208 1.04512 35.7667 2.46873C39.8125 3.89234 41.8347 5.61109 41.8333 7.62498C41.8333 9.49998 40.0361 11.1319 36.4417 12.5208C32.8472 13.9097 28.3944 14.691 23.0833 14.8646V23.25H26.5208C27.3542 23.25 28.1271 23.4847 28.8396 23.9541C29.5521 24.4236 30.0639 25.0569 30.375 25.8541L33.5 33.6666H29.3333L26.8333 27.4166H15.1667L12.6667 33.6666H8.50001Z" fill="#767676"/>
</svg>
