<svg width="15" height="24" viewBox="0 0 15 24" fill="none" xmlns="http://www.w3.org/2000/svg">
<path fill-rule="evenodd" clip-rule="evenodd" d="M0.754963 0.895353C1.0915 0.695231 1.49985 0.717165 1.81745 0.952421L4.34833 2.82715L6.87922 0.952421C7.22688 0.694898 7.67979 0.694898 8.02745 0.952421L10.5583 2.82715L13.0892 0.952421C13.4068 0.717165 13.8152 0.695231 14.1517 0.895353C14.4882 1.09548 14.6983 1.48516 14.6983 1.90928V22.6093C14.6983 23.0078 14.5126 23.378 14.2075 23.5875C13.9023 23.7971 13.5213 23.8161 13.2005 23.6379L10.5583 22.17L7.9162 23.6379C7.62482 23.7997 7.28185 23.7997 6.99047 23.6379L4.34833 22.17L1.7062 23.6379C1.38536 23.8161 1.00434 23.7971 0.699204 23.5875C0.394069 23.378 0.208336 23.0078 0.208336 22.6093V1.90928C0.208336 1.48516 0.418425 1.09548 0.754963 0.895353ZM2.27834 4.05807V20.7485L3.88547 19.8557C4.17685 19.6938 4.51982 19.6938 4.8112 19.8557L7.45333 21.3235L10.0955 19.8557C10.3868 19.6938 10.7298 19.6938 11.0212 19.8557L12.6283 20.7485V4.05807L11.1324 5.16614C10.7848 5.42366 10.3319 5.42366 9.98422 5.16614L7.45333 3.29141L4.92245 5.16614C4.57479 5.42366 4.12188 5.42366 3.77422 5.16614L2.27834 4.05807Z" fill="white"/>
<path fill-rule="evenodd" clip-rule="evenodd" d="M4.34833 8.8093C4.34833 8.17417 4.81172 7.6593 5.38333 7.6593H9.52333C10.0949 7.6593 10.5583 8.17417 10.5583 8.8093C10.5583 9.44443 10.0949 9.9593 9.52333 9.9593H5.38333C4.81172 9.9593 4.34833 9.44443 4.34833 8.8093ZM4.34833 12.2593C4.34833 11.6242 4.81172 11.1093 5.38333 11.1093H9.52333C10.0949 11.1093 10.5583 11.6242 10.5583 12.2593C10.5583 12.8944 10.0949 13.4093 9.52333 13.4093H5.38333C4.81172 13.4093 4.34833 12.8944 4.34833 12.2593ZM4.34833 15.7093C4.34833 15.0742 4.81172 14.5593 5.38333 14.5593H9.52333C10.0949 14.5593 10.5583 15.0742 10.5583 15.7093C10.5583 16.3444 10.0949 16.8593 9.52333 16.8593H5.38333C4.81172 16.8593 4.34833 16.3444 4.34833 15.7093Z" fill="white"/>
</svg>
